<?xml version="1.0" encoding="UTF-8" standalone="no"?>
<svg
   xmlns:dc="http://purl.org/dc/elements/1.1/"
   xmlns:cc="http://creativecommons.org/ns#"
   xmlns:rdf="http://www.w3.org/1999/02/22-rdf-syntax-ns#"
   xmlns:svg="http://www.w3.org/2000/svg"
   xmlns="http://www.w3.org/2000/svg"
   xmlns:sodipodi="http://sodipodi.sourceforge.net/DTD/sodipodi-0.dtd"
   xmlns:inkscape="http://www.inkscape.org/namespaces/inkscape"
   version="1.1"
   id="Layer_1"
   x="0"
   y="0"
   viewBox="-155 383.3 100 100"
   xml:space="preserve"
   enable-background="new -155 383.3 687.5 235.7"
   sodipodi:docname="elastic-logo-no_text.svg"
   width="100"
   height="100"
   inkscape:version="0.92.2 (5c3e80d, 2017-08-06)"><metadata
     id="metadata35"><rdf:RDF><cc:Work
         rdf:about=""><dc:format>image/svg+xml</dc:format><dc:type
           rdf:resource="http://purl.org/dc/dcmitype/StillImage" /><dc:title></dc:title></cc:Work></rdf:RDF></metadata><defs
     id="defs33" /><sodipodi:namedview
     pagecolor="#ffffff"
     bordercolor="#666666"
     borderopacity="1"
     objecttolerance="10"
     gridtolerance="10"
     guidetolerance="10"
     inkscape:pageopacity="0"
     inkscape:pageshadow="2"
     inkscape:window-width="4800"
     inkscape:window-height="2544"
     id="namedview31"
     showgrid="false"
     inkscape:zoom="0.96145455"
     inkscape:cx="343.75"
     inkscape:cy="117.85"
     inkscape:window-x="-16"
     inkscape:window-y="-16"
     inkscape:window-maximized="1"
     inkscape:current-layer="Layer_1" /><g
     id="g4538"
     transform="matrix(0.96,0,0,0.96,-4.2,17.428)"><path
       style="fill:#ffffff;stroke-width:0.42355028"
       inkscape:connector-curvature="0"
       id="path2"
       d="m -55,435.61935 c 0,-8.40407 -5.198648,-15.78947 -13.017751,-18.63327 0.338123,-1.78268 0.507185,-3.56537 0.507185,-5.39049 0,-15.66214 -12.679628,-28.39559 -28.233306,-28.39559 -9.129328,0 -17.582418,4.37182 -22.907858,11.75722 -2.62046,-2.03736 -5.83263,-3.14092 -9.1716,-3.14092 -8.28402,0 -15.00423,6.74873 -15.00423,15.06791 0,1.82513 0.33813,3.60781 0.92984,5.26316 -7.77684,2.80136 -13.10228,10.31409 -13.10228,18.67572 0,8.44652 5.24091,15.83192 13.06002,18.67572 -0.33813,1.74024 -0.50719,3.56537 -0.50719,5.39049 0,15.6197 12.63736,28.3107 28.19104,28.3107 9.12933,0 17.582419,-4.41426 22.865597,-11.79966 2.620457,2.0798 5.832629,3.22581 9.171598,3.22581 8.284024,0 15.004227,-6.74873 15.004227,-15.06792 0,-1.82512 -0.338124,-3.60781 -0.92984,-5.26315 C -60.367709,451.49372 -55,443.98098 -55,435.61935" /><path
       style="fill:#fed10a;stroke-width:0.42355028"
       inkscape:connector-curvature="0"
       id="path4"
       d="m -115.69315,426.28149 21.893488,10.01698 22.062553,-19.43973 c 0.338123,-1.6129 0.46492,-3.18336 0.46492,-4.88115 0,-13.66723 -11.073542,-24.78778 -24.68301,-24.78778 -8.157231,0 -15.722741,4.03226 -20.329671,10.78099 l -3.67709,19.14261 z" /><path
       style="fill:#24bbb1;stroke-width:0.42355028"
       inkscape:connector-curvature="0"
       id="path6"
       d="m -138.34742,449.54126 c -0.33813,1.6129 -0.46492,3.26825 -0.46492,4.96604 0,13.70968 11.11581,24.83022 24.76754,24.83022 8.19949,0 15.849534,-4.0747 20.456465,-10.86587 l 3.634827,-19.05773 -4.860524,-9.33786 -21.978018,-10.05942 z" /><path
       style="fill:#ef5098;stroke-width:0.42355028"
       inkscape:connector-curvature="0"
       id="path8"
       d="m -138.47422,411.5107 15.00423,3.56536 3.2967,-17.10526 c -2.02874,-1.57046 -4.56466,-2.41936 -7.18512,-2.41936 -6.50888,0 -11.83432,5.30561 -11.83432,11.88455 0,1.40068 0.25359,2.80136 0.71851,4.07471" /><path
       style="fill:#17a8e0;stroke-width:0.42355028"
       inkscape:connector-curvature="0"
       id="path10"
       d="m -139.78445,415.11851 c -6.67793,2.20713 -11.3694,8.65874 -11.3694,15.74702 0,6.91851 4.26881,13.07301 10.65089,15.53481 l 21.04818,-19.10017 -3.84615,-8.27674 z" /><path
       style="fill:#93c83e;stroke-width:0.42355028"
       inkscape:connector-curvature="0"
       id="path12"
       d="m -89.784446,468.47165 c 2.071006,1.57046 4.564666,2.4618 7.142857,2.4618 6.508876,0 11.834319,-5.30561 11.834319,-11.88455 0,-1.44313 -0.253592,-2.84381 -0.718512,-4.11715 l -14.961961,-3.52292 z" /><path
       style="fill:#0779a1;stroke-width:0.42355028"
       inkscape:connector-curvature="0"
       id="path14"
       d="m -86.741336,447.46146 16.483517,3.86248 c 6.720203,-2.20713 11.3694,-8.65874 11.3694,-15.78947 0,-6.87607 -4.268808,-13.07301 -10.650888,-15.49236 l -21.555368,18.97283 z" /></g></svg>
